<svg width="171" height="75" viewBox="0 0 171 75" fill="none" xmlns="http://www.w3.org/2000/svg">
<path d="M0.581461 15.1837V8.28371H24.4601V15.1837H16.5135V36H8.4118V15.1837H0.581461ZM26.7272 36V8.28371H48.3188V14.8736H34.8289V18.6337H46.1092V24.7197H34.8289V29.0612H48.7064V36H26.7272ZM51.409 36V8.28371H64.2011C68.2584 8.28371 71.5275 9.52416 74.0084 12.0051C76.4893 14.4601 77.7298 17.8584 77.7298 22.2C77.7298 26.5933 76.5022 29.9916 74.0472 32.3949C71.5921 34.7983 68.1938 36 63.8522 36H51.409ZM59.5107 29.2938H63.1933C65.1056 29.2938 66.6303 28.6865 67.7674 27.4719C68.9303 26.2315 69.5118 24.4742 69.5118 22.2C69.5118 19.9258 68.9433 18.1556 67.8062 16.8893C66.6949 15.623 65.1573 14.9899 63.1933 14.9899H59.5107V29.2938ZM77.7985 36L84.3496 25.7275L78.3412 16.2303H86.753L89.0788 20.727H89.1564L91.4435 16.2303H99.235L93.5755 25.5725L100.01 36H91.5985L88.8075 30.7281H88.73L85.7839 36H77.7985Z" fill="#E22726"/>
<path d="M0.0659178 73L1.66442 70.7506L0.238952 68.7401H0.832212L1.94458 70.3798H1.96105L3.07342 68.7401H3.6502L2.26592 70.7094L3.89739 73H3.29589L1.96929 71.0801H1.95281L0.642698 73H0.0659178Z" fill="#E22726"/>
<path d="M5.65934 71.3191V70.8824H9.12002V71.3191H5.65934ZM5.65934 70.0007V69.564H9.12002V70.0007H5.65934ZM11.2596 73V68.7401H11.7704V73H11.2596ZM11.2596 67.8337V67.1086H11.7704V67.8337H11.2596ZM12.6352 73V68.7401H13.146V69.391H13.1625C13.4976 68.8966 13.9727 68.6494 14.588 68.6494C14.9945 68.6494 15.3213 68.7675 15.5685 69.0037C15.8212 69.2344 15.9475 69.5585 15.9475 69.976V73H15.4367V70.0255C15.4367 69.3992 15.1126 69.0861 14.4644 69.0861C14.0963 69.0861 13.7832 69.2015 13.5251 69.4322C13.2724 69.6629 13.146 69.9513 13.146 70.2974V73H12.6352ZM18.3861 73.1154C17.8203 73.1154 17.3726 72.9094 17.043 72.4974C16.7134 72.0854 16.5487 71.5471 16.5487 70.8824C16.5487 70.1957 16.7217 69.6519 17.0678 69.2509C17.4138 68.8499 17.8478 68.6494 18.3696 68.6494C19.0123 68.6494 19.4792 68.9158 19.7704 69.4487H19.7869V67.1086H20.2977V73H19.7869V72.3655H19.7704C19.4463 72.8654 18.9849 73.1154 18.3861 73.1154ZM18.4026 72.6869C18.8585 72.6869 19.2101 72.5248 19.4573 72.2007C19.7045 71.8712 19.8281 71.4345 19.8281 70.8906C19.8281 70.3523 19.7017 69.9156 19.449 69.5805C19.2018 69.2454 18.853 69.0779 18.4026 69.0779C17.9906 69.0779 17.6665 69.2454 17.4303 69.5805C17.1941 69.9101 17.076 70.3468 17.076 70.8906C17.076 71.418 17.1886 71.8492 17.4138 72.1843C17.6445 72.5193 17.9741 72.6869 18.4026 72.6869ZM22.9198 73.1071C22.2991 73.1071 21.813 72.9011 21.4614 72.4891C21.1098 72.0717 20.934 71.5333 20.934 70.8742C20.934 70.226 21.1126 69.6931 21.4696 69.2756C21.8267 68.8527 22.2964 68.6412 22.8786 68.6412C23.2082 68.6412 23.4939 68.7044 23.7356 68.8307C23.9827 68.957 24.175 69.1328 24.3123 69.358C24.4497 69.5833 24.5485 69.8305 24.609 70.0996C24.6749 70.3633 24.7078 70.6517 24.7078 70.9648H21.4614C21.4724 71.4702 21.6015 71.8821 21.8487 72.2007C22.0959 72.5139 22.4529 72.6704 22.9198 72.6704C23.568 72.6704 23.9827 72.3518 24.164 71.7146H24.6584C24.565 72.1431 24.3673 72.4836 24.0651 72.7363C23.7685 72.9835 23.3867 73.1071 22.9198 73.1071ZM21.4696 70.561H24.1723C24.1613 70.1161 24.0459 69.7563 23.8262 69.4816C23.612 69.2015 23.2961 69.0614 22.8786 69.0614C22.4666 69.0614 22.1398 69.1987 21.8981 69.4734C21.6619 69.7481 21.5191 70.1106 21.4696 70.561ZM25.3408 74.3678V68.7401H25.8516V69.4734H25.8681C26.1922 68.9241 26.6728 68.6494 27.3101 68.6494C27.8319 68.6494 28.2549 68.8472 28.579 69.2427C28.9086 69.6382 29.0734 70.182 29.0734 70.8742C29.0734 71.5388 28.9113 72.0772 28.5872 72.4891C28.2686 72.9011 27.8319 73.1071 27.2771 73.1071C26.6674 73.1071 26.1977 72.8654 25.8681 72.382H25.8516V74.3678H25.3408ZM27.2524 72.6787C27.6699 72.6787 27.9912 72.5111 28.2164 72.176C28.4416 71.8355 28.5543 71.4042 28.5543 70.8824C28.5543 70.3386 28.4389 69.9019 28.2082 69.5723C27.983 69.2427 27.6616 69.0779 27.2441 69.0779C26.7882 69.0779 26.4339 69.2482 26.1812 69.5888C25.934 69.9293 25.8104 70.3633 25.8104 70.8906C25.8104 71.4345 25.9313 71.8684 26.173 72.1925C26.4202 72.5166 26.78 72.6787 27.2524 72.6787ZM31.4734 73.1071C30.8526 73.1071 30.3665 72.9011 30.0149 72.4891C29.6634 72.0717 29.4876 71.5333 29.4876 70.8742C29.4876 70.226 29.6661 69.6931 30.0232 69.2756C30.3802 68.8527 30.8499 68.6412 31.4322 68.6412C31.7618 68.6412 32.0474 68.7044 32.2891 68.8307C32.5363 68.957 32.7286 69.1328 32.8659 69.358C33.0032 69.5833 33.1021 69.8305 33.1625 70.0996C33.2284 70.3633 33.2614 70.6517 33.2614 70.9648H30.0149C30.0259 71.4702 30.155 71.8821 30.4022 72.2007C30.6494 72.5139 31.0064 72.6704 31.4734 72.6704C32.1216 72.6704 32.5363 72.3518 32.7176 71.7146H33.2119C33.1186 72.1431 32.9208 72.4836 32.6187 72.7363C32.3221 72.9835 31.9403 73.1071 31.4734 73.1071ZM30.0232 70.561H32.7258C32.7148 70.1161 32.5995 69.7563 32.3797 69.4816C32.1655 69.2015 31.8496 69.0614 31.4322 69.0614C31.0202 69.0614 30.6933 69.1987 30.4516 69.4734C30.2154 69.7481 30.0726 70.1106 30.0232 70.561ZM33.8943 73V68.7401H34.4052V69.391H34.4216C34.7567 68.8966 35.2319 68.6494 35.8471 68.6494C36.2536 68.6494 36.5805 68.7675 36.8276 69.0037C37.0803 69.2344 37.2067 69.5585 37.2067 69.976V73H36.6958V70.0255C36.6958 69.3992 36.3717 69.0861 35.7235 69.0861C35.3555 69.0861 35.0424 69.2015 34.7842 69.4322C34.5315 69.6629 34.4052 69.9513 34.4052 70.2974V73H33.8943ZM39.6452 73.1154C39.0794 73.1154 38.6318 72.9094 38.3022 72.4974C37.9726 72.0854 37.8078 71.5471 37.8078 70.8824C37.8078 70.1957 37.9808 69.6519 38.3269 69.2509C38.673 68.8499 39.1069 68.6494 39.6288 68.6494C40.2715 68.6494 40.7384 68.9158 41.0295 69.4487H41.046V67.1086H41.5569V73H41.046V72.3655H41.0295C40.7054 72.8654 40.244 73.1154 39.6452 73.1154ZM39.6617 72.6869C40.1177 72.6869 40.4692 72.5248 40.7164 72.2007C40.9636 71.8712 41.0872 71.4345 41.0872 70.8906C41.0872 70.3523 40.9608 69.9156 40.7082 69.5805C40.461 69.2454 40.1122 69.0779 39.6617 69.0779C39.2497 69.0779 38.9256 69.2454 38.6894 69.5805C38.4532 69.9101 38.3351 70.3468 38.3351 70.8906C38.3351 71.418 38.4477 71.8492 38.673 72.1843C38.9037 72.5193 39.2333 72.6869 39.6617 72.6869ZM44.179 73.1071C43.5582 73.1071 43.0721 72.9011 42.7205 72.4891C42.369 72.0717 42.1932 71.5333 42.1932 70.8742C42.1932 70.226 42.3717 69.6931 42.7288 69.2756C43.0858 68.8527 43.5555 68.6412 44.1378 68.6412C44.4673 68.6412 44.753 68.7044 44.9947 68.8307C45.2419 68.957 45.4341 69.1328 45.5715 69.358C45.7088 69.5833 45.8077 69.8305 45.8681 70.0996C45.934 70.3633 45.967 70.6517 45.967 70.9648H42.7205C42.7315 71.4702 42.8606 71.8821 43.1078 72.2007C43.355 72.5139 43.712 72.6704 44.179 72.6704C44.8271 72.6704 45.2419 72.3518 45.4232 71.7146H45.9175C45.8242 72.1431 45.6264 72.4836 45.3243 72.7363C45.0276 72.9835 44.6459 73.1071 44.179 73.1071ZM42.7288 70.561H45.4314C45.4204 70.1161 45.3051 69.7563 45.0853 69.4816C44.8711 69.2015 44.5552 69.0614 44.1378 69.0614C43.7258 69.0614 43.3989 69.1987 43.1572 69.4734C42.921 69.7481 42.7782 70.1106 42.7288 70.561ZM46.5999 73V68.7401H47.1108V69.391H47.1272C47.4623 68.8966 47.9375 68.6494 48.5527 68.6494C48.9592 68.6494 49.286 68.7675 49.5332 69.0037C49.7859 69.2344 49.9123 69.5585 49.9123 69.976V73H49.4014V70.0255C49.4014 69.3992 49.0773 69.0861 48.4291 69.0861C48.0611 69.0861 47.748 69.2015 47.4898 69.4322C47.2371 69.6629 47.1108 69.9513 47.1108 70.2974V73H46.5999ZM51.8254 73.033C51.2816 73.033 51.0097 72.7775 51.0097 72.2667V69.1603H50.367V68.7401H51.0097V67.4299H51.5206V68.7401H52.3116V69.1603H51.5206V72.1843C51.5206 72.3326 51.5535 72.437 51.6194 72.4974C51.6853 72.5578 51.7897 72.588 51.9325 72.588C52.0589 72.588 52.1715 72.566 52.2704 72.5221H52.2951V72.9588C52.1578 73.0082 52.0012 73.033 51.8254 73.033ZM53.0056 73V67.1086H53.5164V73H53.0056ZM54.842 74.409C54.6937 74.409 54.5481 74.387 54.4053 74.3431V73.8899H54.43C54.5454 73.9283 54.6745 73.9476 54.8173 73.9476C55.1524 73.9476 55.3886 73.7553 55.5259 73.3708L55.666 72.9918L54.0263 68.7401H54.5701L55.5918 71.4921L55.9296 72.4644H55.9461C56.067 72.0799 56.1741 71.7558 56.2675 71.4921L57.248 68.7401H57.7753L56.0203 73.4449C55.8829 73.813 55.7236 74.0657 55.5424 74.203C55.3666 74.3403 55.1331 74.409 54.842 74.409ZM61.2537 72.6787C61.7096 72.6787 62.0639 72.5084 62.3166 72.1678C62.5693 71.8272 62.6956 71.396 62.6956 70.8742C62.6956 70.3523 62.5693 69.9211 62.3166 69.5805C62.0639 69.2399 61.7096 69.0697 61.2537 69.0697C60.7922 69.0697 60.4352 69.2399 60.1825 69.5805C59.9298 69.9211 59.8035 70.3523 59.8035 70.8742C59.8035 71.396 59.9298 71.8272 60.1825 72.1678C60.4352 72.5084 60.7922 72.6787 61.2537 72.6787ZM61.2537 73.1071C60.6494 73.1071 60.1688 72.8984 59.8117 72.4809C59.4547 72.0579 59.2761 71.5223 59.2761 70.8742C59.2761 70.226 59.4547 69.6931 59.8117 69.2756C60.1688 68.8527 60.6494 68.6412 61.2537 68.6412C61.8524 68.6412 62.3276 68.8527 62.6791 69.2756C63.0362 69.6931 63.2147 70.226 63.2147 70.8742C63.2147 71.5223 63.0362 72.0579 62.6791 72.4809C62.3276 72.8984 61.8524 73.1071 61.2537 73.1071ZM63.8599 73V68.7401H64.3707V69.5311H64.3872C64.6783 68.9818 65.1123 68.7071 65.6891 68.7071C65.7385 68.7071 65.7852 68.7126 65.8292 68.7236V69.2262C65.4941 69.1713 65.1919 69.2399 64.9228 69.4322C64.5547 69.7069 64.3707 70.0886 64.3707 70.5775V73H63.8599ZM67.8497 74.4914C67.3444 74.4914 66.9434 74.387 66.6467 74.1783C66.3501 73.975 66.1826 73.7086 66.1441 73.379H66.6385C66.7209 73.8405 67.1192 74.0712 67.8333 74.0712C68.2782 74.0712 68.6106 73.964 68.8303 73.7498C69.0555 73.5356 69.1681 73.2362 69.1681 72.8517V72.176H69.1434C68.8193 72.6704 68.3689 72.9176 67.7921 72.9176C67.2373 72.9176 66.7923 72.7226 66.4572 72.3326C66.1276 71.9371 65.9629 71.4235 65.9629 70.7918C65.9629 70.1271 66.1386 69.6052 66.4902 69.2262C66.8418 68.8417 67.2757 68.6494 67.7921 68.6494C68.3908 68.6494 68.8413 68.8994 69.1434 69.3992H69.1681V68.7401H69.6707V72.8352C69.6707 73.3076 69.5389 73.6894 69.2752 73.9805C68.9511 74.3211 68.476 74.4914 67.8497 74.4914ZM67.8168 72.4891C68.2782 72.4891 68.6243 72.3381 68.855 72.036C69.0857 71.7283 69.2011 71.3109 69.2011 70.7835C69.2011 70.2617 69.083 69.8469 68.8468 69.5393C68.616 69.2317 68.2755 69.0779 67.825 69.0779C67.4076 69.0779 67.0807 69.2344 66.8445 69.5476C66.6083 69.8552 66.4902 70.2727 66.4902 70.8C66.4902 71.3054 66.6028 71.7146 66.828 72.0277C67.0532 72.3353 67.3828 72.4891 67.8168 72.4891ZM71.6841 73.0989C71.2721 73.0989 70.937 72.9973 70.6788 72.794C70.4206 72.5908 70.2915 72.2969 70.2915 71.9124C70.2915 71.6707 70.3327 71.4674 70.4151 71.3026C70.503 71.1323 70.6349 71.0005 70.8106 70.9071C70.9919 70.8137 71.1732 70.7451 71.3545 70.7011C71.5412 70.6517 71.7719 70.6105 72.0466 70.5775C72.508 70.5226 72.8129 70.4649 72.9612 70.4045C73.115 70.3386 73.1919 70.204 73.1919 70.0007V69.9183C73.1919 69.3471 72.8513 69.0614 72.1702 69.0614C71.4121 69.0614 71.0139 69.3773 70.9754 70.009H70.4728C70.5003 69.586 70.6568 69.2537 70.9425 69.012C71.2281 68.7703 71.6374 68.6494 72.1702 68.6494C73.1754 68.6494 73.6781 69.0889 73.6781 69.9678V72.2831C73.6781 72.5193 73.7715 72.6429 73.9582 72.6539C73.9857 72.6539 74.0489 72.6429 74.1477 72.621H74.1725V72.9918C74.0736 73.0357 73.9582 73.0577 73.8264 73.0577C73.4309 73.0577 73.2221 72.8572 73.2002 72.4562V72.3655H73.1754C72.8294 72.8544 72.3322 73.0989 71.6841 73.0989ZM71.7747 72.6869C72.2141 72.6869 72.5602 72.5633 72.8129 72.3161C73.0711 72.0634 73.2002 71.7778 73.2002 71.4592V70.6929C72.9914 70.8082 72.6234 70.9016 72.096 70.973C71.9203 70.995 71.7802 71.017 71.6758 71.0389C71.5769 71.0609 71.4643 71.0939 71.338 71.1378C71.2171 71.1818 71.1238 71.234 71.0578 71.2944C70.9974 71.3548 70.9425 71.4372 70.893 71.5416C70.8491 71.6459 70.8271 71.7695 70.8271 71.9124C70.8271 72.4287 71.143 72.6869 71.7747 72.6869ZM74.6423 73V68.7401H75.1532V69.391H75.1697C75.5047 68.8966 75.9799 68.6494 76.5951 68.6494C77.0016 68.6494 77.3285 68.7675 77.5757 69.0037C77.8283 69.2344 77.9547 69.5585 77.9547 69.976V73H77.4438V70.0255C77.4438 69.3992 77.1197 69.0861 76.4715 69.0861C76.1035 69.0861 75.7904 69.2015 75.5322 69.4322C75.2795 69.6629 75.1532 69.9513 75.1532 70.2974V73H74.6423ZM78.7947 73V68.7401H79.3056V73H78.7947ZM78.7947 67.8337V67.1086H79.3056V67.8337H78.7947ZM79.9726 73V72.5633L82.461 69.2097V69.185H80.1374V68.7401H83.1449V69.1026L80.607 72.5221V72.5468H83.219V73H79.9726ZM85.3695 73.1071C84.7488 73.1071 84.2627 72.9011 83.9111 72.4891C83.5595 72.0717 83.3838 71.5333 83.3838 70.8742C83.3838 70.226 83.5623 69.6931 83.9193 69.2756C84.2764 68.8527 84.7461 68.6412 85.3283 68.6412C85.6579 68.6412 85.9436 68.7044 86.1853 68.8307C86.4325 68.957 86.6247 69.1328 86.762 69.358C86.8994 69.5833 86.9983 69.8305 87.0587 70.0996C87.1246 70.3633 87.1576 70.6517 87.1576 70.9648H83.9111C83.9221 71.4702 84.0512 71.8821 84.2984 72.2007C84.5456 72.5139 84.9026 72.6704 85.3695 72.6704C86.0177 72.6704 86.4325 72.3518 86.6137 71.7146H87.1081C87.0147 72.1431 86.817 72.4836 86.5149 72.7363C86.2182 72.9835 85.8364 73.1071 85.3695 73.1071ZM83.9193 70.561H86.622C86.611 70.1161 86.4956 69.7563 86.2759 69.4816C86.0617 69.2015 85.7458 69.0614 85.3283 69.0614C84.9163 69.0614 84.5895 69.1987 84.3478 69.4734C84.1116 69.7481 83.9688 70.1106 83.9193 70.561ZM89.4055 73.1154C88.8397 73.1154 88.392 72.9094 88.0624 72.4974C87.7328 72.0854 87.568 71.5471 87.568 70.8824C87.568 70.1957 87.741 69.6519 88.0871 69.2509C88.4332 68.8499 88.8671 68.6494 89.389 68.6494C90.0317 68.6494 90.4986 68.9158 90.7897 69.4487H90.8062V67.1086H91.3171V73H90.8062V72.3655H90.7897C90.4656 72.8654 90.0042 73.1154 89.4055 73.1154ZM89.4219 72.6869C89.8779 72.6869 90.2294 72.5248 90.4766 72.2007C90.7238 71.8712 90.8474 71.4345 90.8474 70.8906C90.8474 70.3523 90.7211 69.9156 90.4684 69.5805C90.2212 69.2454 89.8724 69.0779 89.4219 69.0779C89.0099 69.0779 88.6858 69.2454 88.4496 69.5805C88.2134 69.9101 88.0953 70.3468 88.0953 70.8906C88.0953 71.418 88.2079 71.8492 88.4332 72.1843C88.6639 72.5193 88.9935 72.6869 89.4219 72.6869ZM95.1371 73V67.603H93.1431V67.1086H97.675V67.603H95.6892V73H95.1371ZM98.358 73V67.1086H102.362V67.5947H98.91V69.7123H102.074V70.1903H98.91V72.4891H102.453V73H98.358ZM103.835 72.5139H105.301C105.982 72.5139 106.488 72.3024 106.817 71.8794C107.152 71.4509 107.32 70.8494 107.32 70.0749C107.32 68.4215 106.666 67.5947 105.359 67.5947H103.835V72.5139ZM103.282 73V67.1086H105.375C106.216 67.1086 106.845 67.375 107.262 67.9079C107.685 68.4407 107.897 69.163 107.897 70.0749C107.897 70.9758 107.677 71.6899 107.238 72.2172C106.804 72.7391 106.164 73 105.318 73H103.282ZM112.865 73.1071C112.244 73.1071 111.758 72.9011 111.406 72.4891C111.055 72.0717 110.879 71.5333 110.879 70.8742C110.879 70.226 111.058 69.6931 111.415 69.2756C111.772 68.8527 112.241 68.6412 112.824 68.6412C113.153 68.6412 113.439 68.7044 113.681 68.8307C113.928 68.957 114.12 69.1328 114.257 69.358C114.395 69.5833 114.494 69.8305 114.554 70.0996C114.62 70.3633 114.653 70.6517 114.653 70.9648H111.406C111.417 71.4702 111.546 71.8821 111.794 72.2007C112.041 72.5139 112.398 72.6704 112.865 72.6704C113.513 72.6704 113.928 72.3518 114.109 71.7146H114.603C114.51 72.1431 114.312 72.4836 114.01 72.7363C113.713 72.9835 113.332 73.1071 112.865 73.1071ZM111.415 70.561H114.117C114.106 70.1161 113.991 69.7563 113.771 69.4816C113.557 69.2015 113.241 69.0614 112.824 69.0614C112.412 69.0614 112.085 69.1987 111.843 69.4734C111.607 69.7481 111.464 70.1106 111.415 70.561ZM116.294 73L114.786 68.7401H115.33L116.244 71.4427L116.59 72.5221H116.607C116.75 72.0772 116.868 71.7173 116.961 71.4427L117.917 68.7401H118.436L116.895 73H116.294ZM120.565 73.1071C119.945 73.1071 119.459 72.9011 119.107 72.4891C118.755 72.0717 118.58 71.5333 118.58 70.8742C118.58 70.226 118.758 69.6931 119.115 69.2756C119.472 68.8527 119.942 68.6412 120.524 68.6412C120.854 68.6412 121.139 68.7044 121.381 68.8307C121.628 68.957 121.821 69.1328 121.958 69.358C122.095 69.5833 122.194 69.8305 122.255 70.0996C122.32 70.3633 122.353 70.6517 122.353 70.9648H119.107C119.118 71.4702 119.247 71.8821 119.494 72.2007C119.741 72.5139 120.098 72.6704 120.565 72.6704C121.214 72.6704 121.628 72.3518 121.81 71.7146H122.304C122.211 72.1431 122.013 72.4836 121.711 72.7363C121.414 72.9835 121.032 73.1071 120.565 73.1071ZM119.115 70.561H121.818C121.807 70.1161 121.691 69.7563 121.472 69.4816C121.258 69.2015 120.942 69.0614 120.524 69.0614C120.112 69.0614 119.785 69.1987 119.544 69.4734C119.307 69.7481 119.165 70.1106 119.115 70.561ZM122.986 73V68.7401H123.497V69.391H123.514C123.849 68.8966 124.324 68.6494 124.939 68.6494C125.346 68.6494 125.672 68.7675 125.92 69.0037C126.172 69.2344 126.299 69.5585 126.299 69.976V73H125.788V70.0255C125.788 69.3992 125.464 69.0861 124.816 69.0861C124.447 69.0861 124.134 69.2015 123.876 69.4322C123.624 69.6629 123.497 69.9513 123.497 70.2974V73H122.986ZM128.212 73.033C127.668 73.033 127.396 72.7775 127.396 72.2667V69.1603H126.753V68.7401H127.396V67.4299H127.907V68.7401H128.698V69.1603H127.907V72.1843C127.907 72.3326 127.94 72.437 128.006 72.4974C128.072 72.5578 128.176 72.588 128.319 72.588C128.445 72.588 128.558 72.566 128.657 72.5221H128.682V72.9588C128.544 73.0082 128.388 73.033 128.212 73.033Z" fill="white"/>
<path d="M8.01769 63.6891C5.70489 63.6891 3.91462 63.1151 2.64687 61.9673C1.37911 60.8023 0.693838 59.2776 0.591048 57.3931H2.31279C2.39845 58.935 2.93811 60.1342 3.93175 60.9908C4.94253 61.8302 6.31307 62.25 8.04339 62.25C9.43106 62.25 10.5618 61.9159 11.4355 61.2478C12.3092 60.5625 12.7461 59.6117 12.7461 58.3953C12.7461 57.179 12.3349 56.3138 11.5126 55.7999C10.7074 55.2859 9.23405 54.8148 7.09257 54.3865C5.17381 54.0096 3.72617 53.4699 2.74966 52.7675C1.79027 52.0651 1.31058 50.9687 1.31058 49.4782C1.31058 48.022 1.87593 46.8485 3.00663 45.9576C4.13733 45.0668 5.61924 44.6213 7.45234 44.6213C9.4225 44.6213 10.9472 45.1096 12.0265 46.0861C13.123 47.0455 13.7568 48.3475 13.9282 49.9922H12.2578C12.1036 48.7244 11.5982 47.7565 10.7416 47.0883C9.90219 46.4031 8.81432 46.0604 7.47804 46.0604C6.09036 46.0604 4.99392 46.3688 4.18873 46.9855C3.38353 47.5851 2.98094 48.3989 2.98094 49.4268C2.98094 50.4547 3.35784 51.2085 4.11164 51.6882C4.88257 52.1508 6.16745 52.5534 7.96629 52.896C8.80575 53.0502 9.49959 53.2044 10.0478 53.3586C10.596 53.4956 11.1785 53.7098 11.7953 54.001C12.412 54.2751 12.8917 54.5921 13.2343 54.9518C13.5941 55.3116 13.8939 55.7742 14.1337 56.3395C14.3736 56.9049 14.4935 57.5644 14.4935 58.3182C14.4935 59.9457 13.8939 61.2478 12.6947 62.2243C11.5126 63.2008 9.95358 63.6891 8.01769 63.6891ZM21.1398 63.6891C17.6792 63.6891 15.9488 61.8731 15.9488 58.2411V57.5473H17.6449V58.164C17.6449 59.6202 17.9361 60.6653 18.5186 61.2992C19.1011 61.9159 19.992 62.2243 21.1912 62.2243C23.2984 62.2243 24.352 61.0936 24.352 58.8322V44.9811H26.0737V58.9607C26.0737 60.3655 25.654 61.5047 24.8146 62.3785C23.9751 63.2522 22.7502 63.6891 21.1398 63.6891ZM36.7797 63.6891C34.2442 63.6891 32.2312 62.8153 30.7407 61.0679C29.2502 59.3204 28.505 57.0248 28.505 54.1809C28.505 51.3541 29.2588 49.0499 30.7664 47.2682C32.274 45.4865 34.3041 44.5956 36.8568 44.5956C38.7755 44.5956 40.3516 45.0925 41.5851 46.0861C42.8358 47.0798 43.6153 48.4417 43.9236 50.1721H42.2276C41.9706 48.9386 41.371 47.9535 40.4287 47.2168C39.4865 46.463 38.2873 46.0861 36.8311 46.0861C34.7581 46.0861 33.1477 46.8485 31.9999 48.3732C30.8692 49.8808 30.3038 51.8167 30.3038 54.1809C30.3038 56.5451 30.8692 58.4724 31.9999 59.9629C33.1477 61.4362 34.7495 62.1729 36.8054 62.1729C38.5014 62.1729 39.8463 61.6589 40.8399 60.631C41.8335 59.6031 42.4075 58.284 42.5616 56.6736H44.232C44.1292 58.6095 43.4953 60.2113 42.3304 61.479C41.0112 62.9524 39.161 63.6891 36.7797 63.6891ZM46.6157 63.355V44.9811H59.1048V46.4973H48.3374V53.1016H58.2053V54.5921H48.3374V61.7617H59.3874V63.355H46.6157ZM67.0365 63.355V46.523H60.8177V44.9811H74.9514V46.523H68.7583V63.355H67.0365ZM80.9462 63.355V44.9811H88.1673C90.0346 44.9811 91.4737 45.5122 92.4845 46.5744C93.3411 47.4824 93.7694 48.6644 93.7694 50.1207C93.7694 51.8338 93.2726 53.1359 92.2789 54.0267C91.3024 54.9176 89.8548 55.363 87.936 55.363H82.668V63.355H80.9462ZM82.668 53.8982H87.8075C90.6171 53.8982 92.0219 52.6562 92.0219 50.1721C92.0219 48.99 91.6707 48.082 90.9683 47.4481C90.2831 46.8142 89.2808 46.4973 87.9617 46.4973H82.668V53.8982ZM98.6403 63.6634C97.3554 63.6634 96.3104 63.3464 95.5052 62.7125C94.7 62.0787 94.2974 61.1621 94.2974 59.9629C94.2974 59.2091 94.4259 58.5752 94.6828 58.0612C94.957 57.5302 95.3681 57.119 95.9163 56.8278C96.4817 56.5365 97.047 56.3224 97.6124 56.1853C98.1949 56.0311 98.9144 55.9026 99.771 55.7999C101.21 55.6285 102.161 55.4486 102.623 55.2602C103.103 55.0546 103.343 54.6349 103.343 54.001V53.744C103.343 51.9623 102.281 51.0715 100.156 51.0715C97.7923 51.0715 96.5502 52.0565 96.4303 54.0267H94.8627C94.9484 52.7076 95.4366 51.6711 96.3275 50.9173C97.2184 50.1635 98.4947 49.7866 100.156 49.7866C103.292 49.7866 104.859 51.1571 104.859 53.8982V61.1193C104.859 61.8559 105.15 62.2414 105.733 62.2757C105.819 62.2757 106.016 62.2414 106.324 62.1729H106.401V63.3293C106.093 63.4663 105.733 63.5349 105.322 63.5349C104.088 63.5349 103.437 62.9096 103.369 61.6589V61.3763H103.292C102.212 62.901 100.662 63.6634 98.6403 63.6634ZM98.923 62.3785C100.294 62.3785 101.373 61.993 102.161 61.2221C102.966 60.434 103.369 59.5432 103.369 58.5495V56.1596C102.718 56.5194 101.57 56.8106 99.9252 57.0333C99.377 57.1019 98.9401 57.1704 98.6146 57.2389C98.3062 57.3075 97.955 57.4102 97.561 57.5473C97.1841 57.6844 96.8928 57.8471 96.6873 58.0356C96.4988 58.224 96.3275 58.481 96.1733 58.8065C96.0363 59.132 95.9677 59.5175 95.9677 59.9629C95.9677 61.5733 96.9528 62.3785 98.923 62.3785ZM107.943 63.355V44.9811H109.537V63.355H107.943ZM115.881 63.6634C114.596 63.6634 113.551 63.3464 112.746 62.7125C111.941 62.0787 111.538 61.1621 111.538 59.9629C111.538 59.2091 111.666 58.5752 111.923 58.0612C112.198 57.5302 112.609 57.119 113.157 56.8278C113.722 56.5365 114.288 56.3224 114.853 56.1853C115.435 56.0311 116.155 55.9026 117.012 55.7999C118.451 55.6285 119.401 55.4486 119.864 55.2602C120.344 55.0546 120.584 54.6349 120.584 54.001V53.744C120.584 51.9623 119.521 51.0715 117.397 51.0715C115.033 51.0715 113.791 52.0565 113.671 54.0267H112.103C112.189 52.7076 112.677 51.6711 113.568 50.9173C114.459 50.1635 115.735 49.7866 117.397 49.7866C120.532 49.7866 122.1 51.1571 122.1 53.8982V61.1193C122.1 61.8559 122.391 62.2414 122.973 62.2757C123.059 62.2757 123.256 62.2414 123.564 62.1729H123.642V63.3293C123.333 63.4663 122.973 63.5349 122.562 63.5349C121.329 63.5349 120.678 62.9096 120.609 61.6589V61.3763H120.532C119.453 62.901 117.902 63.6634 115.881 63.6634ZM116.164 62.3785C117.534 62.3785 118.613 61.993 119.401 61.2221C120.207 60.434 120.609 59.5432 120.609 58.5495V56.1596C119.958 56.5194 118.81 56.8106 117.166 57.0333C116.618 57.1019 116.181 57.1704 115.855 57.2389C115.547 57.3075 115.196 57.4102 114.802 57.5473C114.425 57.6844 114.133 57.8471 113.928 58.0356C113.739 58.224 113.568 58.481 113.414 58.8065C113.277 59.132 113.208 59.5175 113.208 59.9629C113.208 61.5733 114.193 62.3785 116.164 62.3785ZM125.158 63.355V50.0693H126.752V63.355H125.158ZM125.158 47.2425V44.9811H126.752V47.2425H125.158Z" fill="white"/>
</svg>
